<svg xmlns="http://www.w3.org/2000/svg" xmlns:xlink="http://www.w3.org/1999/xlink" width="320" zoomAndPan="magnify" viewBox="0 0 240 60" height="80" preserveAspectRatio="xMidYMid meet" version="1.0"><defs><g/><clipPath id="d9fd1037b4"><path d="M 125.128906 19.601562 L 130.152344 19.601562 L 130.152344 54.25 L 125.128906 54.25 Z M 125.128906 19.601562 " clip-rule="nonzero"/></clipPath><clipPath id="252aa5f86d"><path d="M 107.4375 5.734375 L 112.460938 5.734375 L 112.460938 40.382812 L 107.4375 40.382812 Z M 107.4375 5.734375 " clip-rule="nonzero"/></clipPath><clipPath id="fa31466a19"><path d="M 109.949219 24.976562 L 127.640625 24.976562 L 127.640625 30 L 109.949219 30 Z M 109.949219 24.976562 " clip-rule="nonzero"/></clipPath></defs><g clip-path="url(#d9fd1037b4)"><path fill="#000000" d="M 125.128906 54.25 L 125.128906 19.605469 L 130.152344 19.605469 L 130.152344 54.25 Z M 125.128906 54.25 " fill-opacity="1" fill-rule="nonzero"/></g><g clip-path="url(#252aa5f86d)"><path fill="#000000" d="M 107.4375 40.382812 L 107.4375 5.742188 L 112.460938 5.742188 L 112.460938 40.382812 Z M 107.4375 40.382812 " fill-opacity="1" fill-rule="nonzero"/></g><g fill="#000000" fill-opacity="1"><g transform="translate(84.304648, 32.37079)"><g><path d="M 2.453125 0 L 2.453125 -20.421875 L 11.578125 -20.421875 C 13.660156 -20.421875 15.3125 -19.921875 16.53125 -18.921875 C 17.757812 -17.929688 18.375 -16.601562 18.375 -14.9375 C 18.375 -13.976562 18.160156 -13.109375 17.734375 -12.328125 C 17.304688 -11.554688 16.703125 -10.945312 15.921875 -10.5 C 16.898438 -10.070312 17.65625 -9.4375 18.1875 -8.59375 C 18.71875 -7.757812 18.984375 -6.800781 18.984375 -5.71875 C 18.984375 -4.570312 18.691406 -3.566406 18.109375 -2.703125 C 17.523438 -1.847656 16.710938 -1.179688 15.671875 -0.703125 C 14.640625 -0.234375 13.429688 0 12.046875 0 Z M 7.03125 -3.671875 L 11.34375 -3.671875 C 12.257812 -3.671875 12.96875 -3.882812 13.46875 -4.3125 C 13.976562 -4.738281 14.234375 -5.34375 14.234375 -6.125 C 14.234375 -6.90625 13.976562 -7.507812 13.46875 -7.9375 C 12.96875 -8.363281 12.257812 -8.578125 11.34375 -8.578125 L 7.03125 -8.578125 Z M 7.03125 -12.109375 L 10.875 -12.109375 C 11.769531 -12.109375 12.457031 -12.3125 12.9375 -12.71875 C 13.414062 -13.125 13.65625 -13.695312 13.65625 -14.4375 C 13.65625 -15.175781 13.414062 -15.742188 12.9375 -16.140625 C 12.457031 -16.546875 11.769531 -16.75 10.875 -16.75 L 7.03125 -16.75 Z M 7.03125 -12.109375 "/></g></g></g><g fill="#000000" fill-opacity="1"><g transform="translate(133.172265, 46.235872)"><g><path d="M 2.453125 0 L 2.453125 -20.421875 L 10.53125 -20.421875 C 12.6875 -20.421875 14.570312 -19.992188 16.1875 -19.140625 C 17.800781 -18.285156 19.054688 -17.085938 19.953125 -15.546875 C 20.847656 -14.015625 21.296875 -12.234375 21.296875 -10.203125 C 21.296875 -8.160156 20.847656 -6.375 19.953125 -4.84375 C 19.054688 -3.320312 17.800781 -2.132812 16.1875 -1.28125 C 14.570312 -0.425781 12.6875 0 10.53125 0 Z M 7.09375 -4.265625 L 10.4375 -4.265625 C 11.644531 -4.265625 12.707031 -4.507812 13.625 -5 C 14.539062 -5.5 15.253906 -6.195312 15.765625 -7.09375 C 16.285156 -7.988281 16.546875 -9.023438 16.546875 -10.203125 C 16.546875 -11.410156 16.285156 -12.457031 15.765625 -13.34375 C 15.253906 -14.226562 14.535156 -14.914062 13.609375 -15.40625 C 12.679688 -15.90625 11.609375 -16.15625 10.390625 -16.15625 L 7.09375 -16.15625 Z M 7.09375 -4.265625 "/></g></g></g><g clip-path="url(#fa31466a19)"><path fill="#000000" d="M 109.949219 24.976562 L 127.632812 24.976562 L 127.632812 30 L 109.949219 30 Z M 109.949219 24.976562 " fill-opacity="1" fill-rule="nonzero"/></g></svg>