<svg xmlns="http://www.w3.org/2000/svg" xmlns:xlink="http://www.w3.org/1999/xlink" width="320" zoomAndPan="magnify" viewBox="0 0 240 60" height="80" preserveAspectRatio="xMidYMid meet" version="1.0"><defs><g/><clipPath id="a700268b63"><path d="M 124.371094 17.785156 L 128.644531 17.785156 L 128.644531 47.25 L 124.371094 47.25 Z M 124.371094 17.785156 " clip-rule="nonzero"/></clipPath><clipPath id="fd7ed4f184"><path d="M 109.324219 6 L 113.597656 6 L 113.597656 35.460938 L 109.324219 35.460938 Z M 109.324219 6 " clip-rule="nonzero"/></clipPath><clipPath id="a3d0254ef8"><path d="M 112.527344 25.035156 L 125.4375 25.035156 L 125.4375 28.222656 L 112.527344 28.222656 Z M 112.527344 25.035156 " clip-rule="nonzero"/></clipPath></defs><g clip-path="url(#a700268b63)"><path fill="#ffffff" d="M 124.371094 47.25 L 124.371094 17.789062 L 128.644531 17.789062 L 128.644531 47.25 Z M 124.371094 47.25 " fill-opacity="1" fill-rule="nonzero"/></g><g clip-path="url(#fd7ed4f184)"><path fill="#ffffff" d="M 109.324219 35.460938 L 109.324219 6 L 113.597656 6 L 113.597656 35.460938 Z M 109.324219 35.460938 " fill-opacity="1" fill-rule="nonzero"/></g><g fill="#ffffff" fill-opacity="1"><g transform="translate(89.652894, 34.539237)"><g><path d="M 2.078125 0 L 2.078125 -17.375 L 9.84375 -17.375 C 11.613281 -17.375 13.019531 -16.953125 14.0625 -16.109375 C 15.101562 -15.265625 15.625 -14.128906 15.625 -12.703125 C 15.625 -11.890625 15.441406 -11.148438 15.078125 -10.484375 C 14.722656 -9.828125 14.210938 -9.3125 13.546875 -8.9375 C 14.367188 -8.570312 15.007812 -8.03125 15.46875 -7.3125 C 15.925781 -6.601562 16.15625 -5.785156 16.15625 -4.859375 C 16.15625 -3.890625 15.90625 -3.039062 15.40625 -2.3125 C 14.914062 -1.582031 14.226562 -1.015625 13.34375 -0.609375 C 12.457031 -0.203125 11.425781 0 10.25 0 Z M 5.984375 -3.125 L 9.65625 -3.125 C 10.425781 -3.125 11.023438 -3.304688 11.453125 -3.671875 C 11.890625 -4.035156 12.109375 -4.546875 12.109375 -5.203125 C 12.109375 -5.867188 11.890625 -6.382812 11.453125 -6.75 C 11.023438 -7.113281 10.425781 -7.296875 9.65625 -7.296875 L 5.984375 -7.296875 Z M 5.984375 -10.296875 L 9.25 -10.296875 C 10.007812 -10.296875 10.59375 -10.46875 11 -10.8125 C 11.40625 -11.164062 11.609375 -11.65625 11.609375 -12.28125 C 11.609375 -12.90625 11.40625 -13.390625 11 -13.734375 C 10.59375 -14.078125 10.007812 -14.25 9.25 -14.25 L 5.984375 -14.25 Z M 5.984375 -10.296875 "/></g></g></g><g fill="#ffffff" fill-opacity="1"><g transform="translate(131.1937, 34.540852)"><g><path d="M 2.078125 0 L 2.078125 -17.375 L 8.953125 -17.375 C 10.796875 -17.375 12.398438 -17.007812 13.765625 -16.28125 C 15.140625 -15.550781 16.207031 -14.53125 16.96875 -13.21875 C 17.726562 -11.914062 18.109375 -10.40625 18.109375 -8.6875 C 18.109375 -6.945312 17.726562 -5.425781 16.96875 -4.125 C 16.207031 -2.832031 15.140625 -1.820312 13.765625 -1.09375 C 12.398438 -0.363281 10.796875 0 8.953125 0 Z M 6.03125 -3.625 L 8.890625 -3.625 C 9.910156 -3.625 10.804688 -3.832031 11.578125 -4.25 C 12.359375 -4.675781 12.96875 -5.269531 13.40625 -6.03125 C 13.84375 -6.789062 14.0625 -7.675781 14.0625 -8.6875 C 14.0625 -9.707031 13.84375 -10.59375 13.40625 -11.34375 C 12.96875 -12.101562 12.351562 -12.691406 11.5625 -13.109375 C 10.78125 -13.535156 9.867188 -13.75 8.828125 -13.75 L 6.03125 -13.75 Z M 6.03125 -3.625 "/></g></g></g><g clip-path="url(#a3d0254ef8)"><path fill="#ffffff" d="M 112.527344 25.035156 L 125.433594 25.035156 L 125.433594 28.222656 L 112.527344 28.222656 Z M 112.527344 25.035156 " fill-opacity="1" fill-rule="nonzero"/></g><g fill="#ffffff" fill-opacity="1"><g transform="translate(92.488083, 58.031804)"><g><path d="M 3.328125 0.09375 C 2.796875 0.09375 2.320312 -0.0234375 1.90625 -0.265625 C 1.5 -0.515625 1.175781 -0.867188 0.9375 -1.328125 C 0.707031 -1.796875 0.59375 -2.351562 0.59375 -3 C 0.59375 -3.65625 0.707031 -4.210938 0.9375 -4.671875 C 1.175781 -5.140625 1.5 -5.492188 1.90625 -5.734375 C 2.320312 -5.972656 2.796875 -6.09375 3.328125 -6.09375 C 3.890625 -6.09375 4.351562 -5.988281 4.71875 -5.78125 C 5.09375 -5.570312 5.363281 -5.25 5.53125 -4.8125 L 5.078125 -4.515625 L 4.96875 -4.515625 C 4.8125 -4.859375 4.597656 -5.101562 4.328125 -5.25 C 4.066406 -5.394531 3.734375 -5.46875 3.328125 -5.46875 C 2.941406 -5.46875 2.601562 -5.378906 2.3125 -5.203125 C 2.019531 -5.035156 1.785156 -4.769531 1.609375 -4.40625 C 1.441406 -4.039062 1.359375 -3.570312 1.359375 -3 C 1.359375 -2.4375 1.441406 -1.972656 1.609375 -1.609375 C 1.785156 -1.242188 2.019531 -0.972656 2.3125 -0.796875 C 2.601562 -0.628906 2.941406 -0.546875 3.328125 -0.546875 C 3.753906 -0.546875 4.109375 -0.644531 4.390625 -0.84375 C 4.671875 -1.039062 4.878906 -1.359375 5.015625 -1.796875 L 5.109375 -1.796875 L 5.578125 -1.5625 C 5.441406 -1.03125 5.179688 -0.617188 4.796875 -0.328125 C 4.410156 -0.046875 3.921875 0.09375 3.328125 0.09375 Z M 3.328125 0.09375 "/></g></g><g transform="translate(98.37971, 58.031804)"><g><path d="M 3.296875 0.09375 C 2.773438 0.09375 2.3125 -0.0195312 1.90625 -0.25 C 1.5 -0.476562 1.175781 -0.820312 0.9375 -1.28125 C 0.707031 -1.738281 0.59375 -2.3125 0.59375 -3 C 0.59375 -3.6875 0.707031 -4.257812 0.9375 -4.71875 C 1.175781 -5.1875 1.5 -5.53125 1.90625 -5.75 C 2.3125 -5.976562 2.773438 -6.09375 3.296875 -6.09375 C 3.816406 -6.09375 4.28125 -5.976562 4.6875 -5.75 C 5.09375 -5.53125 5.410156 -5.1875 5.640625 -4.71875 C 5.878906 -4.257812 6 -3.6875 6 -3 C 6 -2.3125 5.878906 -1.738281 5.640625 -1.28125 C 5.410156 -0.820312 5.09375 -0.476562 4.6875 -0.25 C 4.28125 -0.0195312 3.816406 0.09375 3.296875 0.09375 Z M 3.296875 -0.5625 C 3.921875 -0.5625 4.398438 -0.753906 4.734375 -1.140625 C 5.066406 -1.535156 5.234375 -2.15625 5.234375 -3 C 5.234375 -3.84375 5.066406 -4.457031 4.734375 -4.84375 C 4.398438 -5.238281 3.921875 -5.4375 3.296875 -5.4375 C 2.003906 -5.4375 1.359375 -4.625 1.359375 -3 C 1.359375 -1.375 2.003906 -0.5625 3.296875 -0.5625 Z M 3.296875 -0.5625 "/></g></g><g transform="translate(104.969786, 58.031804)"><g><path d="M 1.59375 0 L 0.90625 0 L 0.90625 -6.015625 L 1.78125 -6.015625 L 4.703125 -1.421875 L 4.8125 -1.4375 L 4.8125 -6.015625 L 5.5 -6.015625 L 5.5 0 L 4.765625 0 L 1.703125 -4.921875 L 1.59375 -4.890625 Z M 1.59375 0 "/></g></g><g transform="translate(111.374978, 58.031804)"><g><path d="M 2.625 0.09375 C 2.25 0.09375 1.910156 0.0390625 1.609375 -0.0625 C 1.304688 -0.164062 1.054688 -0.300781 0.859375 -0.46875 C 0.660156 -0.632812 0.507812 -0.820312 0.40625 -1.03125 L 0.796875 -1.5 L 0.90625 -1.5 C 1.269531 -0.863281 1.84375 -0.546875 2.625 -0.546875 C 3.082031 -0.546875 3.421875 -0.640625 3.640625 -0.828125 C 3.859375 -1.023438 3.96875 -1.289062 3.96875 -1.625 C 3.96875 -1.820312 3.929688 -1.988281 3.859375 -2.125 C 3.785156 -2.257812 3.664062 -2.375 3.5 -2.46875 C 3.332031 -2.570312 3.101562 -2.660156 2.8125 -2.734375 L 2.109375 -2.90625 C 1.585938 -3.03125 1.203125 -3.226562 0.953125 -3.5 C 0.703125 -3.78125 0.578125 -4.128906 0.578125 -4.546875 C 0.578125 -4.847656 0.65625 -5.113281 0.8125 -5.34375 C 0.96875 -5.582031 1.191406 -5.765625 1.484375 -5.890625 C 1.785156 -6.023438 2.140625 -6.09375 2.546875 -6.09375 C 3.003906 -6.09375 3.382812 -6.03125 3.6875 -5.90625 C 4 -5.78125 4.25 -5.585938 4.4375 -5.328125 L 4.09375 -4.875 L 4 -4.875 C 3.820312 -5.082031 3.613281 -5.234375 3.375 -5.328125 C 3.144531 -5.429688 2.867188 -5.484375 2.546875 -5.484375 C 2.128906 -5.484375 1.8125 -5.398438 1.59375 -5.234375 C 1.382812 -5.078125 1.28125 -4.851562 1.28125 -4.5625 C 1.28125 -4.289062 1.359375 -4.078125 1.515625 -3.921875 C 1.671875 -3.765625 1.9375 -3.640625 2.3125 -3.546875 L 3.03125 -3.375 C 3.613281 -3.238281 4.035156 -3.023438 4.296875 -2.734375 C 4.554688 -2.453125 4.6875 -2.09375 4.6875 -1.65625 C 4.6875 -1.3125 4.609375 -1.007812 4.453125 -0.75 C 4.304688 -0.488281 4.078125 -0.28125 3.765625 -0.125 C 3.460938 0.0195312 3.082031 0.09375 2.625 0.09375 Z M 2.625 0.09375 "/></g></g><g transform="translate(116.522961, 58.031804)"><g><path d="M 3.09375 0.09375 C 2.363281 0.09375 1.804688 -0.09375 1.421875 -0.46875 C 1.046875 -0.84375 0.859375 -1.398438 0.859375 -2.140625 L 0.859375 -6.015625 L 1.5625 -6.015625 L 1.5625 -2.140625 C 1.5625 -1.617188 1.6875 -1.222656 1.9375 -0.953125 C 2.195312 -0.691406 2.582031 -0.5625 3.09375 -0.5625 C 4.125 -0.5625 4.640625 -1.085938 4.640625 -2.140625 L 4.640625 -6.015625 L 5.34375 -6.015625 L 5.34375 -2.140625 C 5.34375 -1.398438 5.148438 -0.84375 4.765625 -0.46875 C 4.390625 -0.09375 3.832031 0.09375 3.09375 0.09375 Z M 3.09375 0.09375 "/></g></g><g transform="translate(122.71451, 58.031804)"><g><path d="M 1.609375 -6.015625 L 1.609375 -0.578125 L 4.515625 -0.578125 L 4.515625 0 L 0.90625 0 L 0.90625 -6.015625 Z M 1.609375 -6.015625 "/></g></g><g transform="translate(127.476292, 58.031804)"><g><path d="M 4.6875 -6.015625 L 4.6875 -5.40625 L 2.8125 -5.40625 L 2.8125 0 L 2.109375 0 L 2.109375 -5.40625 L 0.21875 -5.40625 L 0.21875 -6.015625 Z M 4.6875 -6.015625 "/></g></g><g transform="translate(132.381872, 58.031804)"><g><path d="M 1.609375 0 L 0.90625 0 L 0.90625 -6.015625 L 1.609375 -6.015625 Z M 1.609375 0 "/></g></g><g transform="translate(134.908616, 58.031804)"><g><path d="M 1.59375 0 L 0.90625 0 L 0.90625 -6.015625 L 1.78125 -6.015625 L 4.703125 -1.421875 L 4.8125 -1.4375 L 4.8125 -6.015625 L 5.5 -6.015625 L 5.5 0 L 4.765625 0 L 1.703125 -4.921875 L 1.59375 -4.890625 Z M 1.59375 0 "/></g></g><g transform="translate(141.313808, 58.031804)"><g><path d="M 3.15625 0.09375 C 2.65625 0.09375 2.210938 -0.0195312 1.828125 -0.25 C 1.441406 -0.488281 1.140625 -0.835938 0.921875 -1.296875 C 0.703125 -1.765625 0.59375 -2.332031 0.59375 -3 C 0.59375 -3.675781 0.707031 -4.242188 0.9375 -4.703125 C 1.175781 -5.171875 1.5 -5.519531 1.90625 -5.75 C 2.320312 -5.976562 2.796875 -6.09375 3.328125 -6.09375 C 3.910156 -6.09375 4.382812 -5.988281 4.75 -5.78125 C 5.125 -5.582031 5.390625 -5.273438 5.546875 -4.859375 L 5.078125 -4.59375 L 4.96875 -4.59375 C 4.8125 -4.90625 4.597656 -5.128906 4.328125 -5.265625 C 4.066406 -5.398438 3.734375 -5.46875 3.328125 -5.46875 C 2.015625 -5.46875 1.359375 -4.644531 1.359375 -3 C 1.359375 -2.15625 1.523438 -1.535156 1.859375 -1.140625 C 2.191406 -0.742188 2.65625 -0.546875 3.25 -0.546875 C 3.800781 -0.546875 4.210938 -0.671875 4.484375 -0.921875 C 4.753906 -1.171875 4.890625 -1.566406 4.890625 -2.109375 L 4.890625 -2.640625 L 3.171875 -2.640625 L 3.171875 -3.203125 L 5.578125 -3.203125 L 5.578125 0 L 4.921875 0 L 4.921875 -0.8125 L 4.84375 -0.828125 C 4.675781 -0.515625 4.453125 -0.28125 4.171875 -0.125 C 3.890625 0.0195312 3.550781 0.09375 3.15625 0.09375 Z M 3.15625 0.09375 "/></g></g></g></svg>